<svg xmlns="http://www.w3.org/2000/svg" xmlns:xlink="http://www.w3.org/1999/xlink" width="940" zoomAndPan="magnify" viewBox="0 0 705 591.000005" height="788" preserveAspectRatio="xMidYMid meet" version="1.0"><defs><g/><clipPath id="0fc28216d7"><path d="M 31 21 L 100 21 L 100 65 L 31 65 Z M 31 21 " clip-rule="nonzero"/></clipPath><clipPath id="0760ba529b"><path d="M 46.929688 64.628906 L 31.589844 21.757812 L 91.542969 0.304688 L 106.882812 43.179688 Z M 46.929688 64.628906 " clip-rule="nonzero"/></clipPath><clipPath id="67ae9c8f0c"><path d="M 99.082031 21.789062 L 46.929688 64.628906 L 31.589844 21.757812 Z M 99.082031 21.789062 " clip-rule="nonzero"/></clipPath><clipPath id="5480c75354"><path d="M 0.402344 0.699219 L 68.207031 0.699219 L 68.207031 43.828125 L 0.402344 43.828125 Z M 0.402344 0.699219 " clip-rule="nonzero"/></clipPath><clipPath id="5015564a84"><path d="M 15.929688 43.628906 L 0.589844 0.757812 L 60.542969 -20.695312 L 75.882812 22.179688 Z M 15.929688 43.628906 " clip-rule="nonzero"/></clipPath><clipPath id="a24782be00"><path d="M 68.082031 0.789062 L 15.929688 43.628906 L 0.589844 0.757812 Z M 68.082031 0.789062 " clip-rule="nonzero"/></clipPath><clipPath id="90008fd68e"><rect x="0" width="69" y="0" height="44"/></clipPath><clipPath id="cbe4fdf948"><path d="M 8.972656 21.703125 L 56.632812 21.703125 L 56.632812 69.363281 L 8.972656 69.363281 Z M 8.972656 21.703125 " clip-rule="nonzero"/></clipPath><clipPath id="8f82826747"><path d="M 32.800781 21.703125 C 19.640625 21.703125 8.972656 32.371094 8.972656 45.53125 C 8.972656 58.691406 19.640625 69.363281 32.800781 69.363281 C 45.964844 69.363281 56.632812 58.691406 56.632812 45.53125 C 56.632812 32.371094 45.964844 21.703125 32.800781 21.703125 Z M 32.800781 21.703125 " clip-rule="nonzero"/></clipPath><clipPath id="fbfe29b97a"><path d="M 0.972656 0.703125 L 48.632812 0.703125 L 48.632812 48.363281 L 0.972656 48.363281 Z M 0.972656 0.703125 " clip-rule="nonzero"/></clipPath><clipPath id="f6dbbff67e"><path d="M 24.800781 0.703125 C 11.640625 0.703125 0.972656 11.371094 0.972656 24.53125 C 0.972656 37.691406 11.640625 48.363281 24.800781 48.363281 C 37.964844 48.363281 48.632812 37.691406 48.632812 24.53125 C 48.632812 11.371094 37.964844 0.703125 24.800781 0.703125 Z M 24.800781 0.703125 " clip-rule="nonzero"/></clipPath><clipPath id="eb3373e163"><rect x="0" width="49" y="0" height="49"/></clipPath><clipPath id="1631b43e0a"><path d="M 8 62 L 76 62 L 76 106 L 8 106 Z M 8 62 " clip-rule="nonzero"/></clipPath><clipPath id="a28b713fda"><path d="M 60.523438 62.304688 L 75.867188 105.175781 L 15.914062 126.628906 L 0.570312 83.757812 Z M 60.523438 62.304688 " clip-rule="nonzero"/></clipPath><clipPath id="2c395dc0d1"><path d="M 8.375 105.144531 L 60.523438 62.304688 L 75.867188 105.175781 Z M 8.375 105.144531 " clip-rule="nonzero"/></clipPath><clipPath id="938b54303c"><path d="M 0.160156 0.191406 L 67.964844 0.191406 L 67.964844 43.316406 L 0.160156 43.316406 Z M 0.160156 0.191406 " clip-rule="nonzero"/></clipPath><clipPath id="35a008edae"><path d="M 52.523438 0.304688 L 67.867188 43.175781 L 7.914062 64.628906 L -7.429688 21.757812 Z M 52.523438 0.304688 " clip-rule="nonzero"/></clipPath><clipPath id="38fb234aec"><path d="M 0.375 43.144531 L 52.523438 0.304688 L 67.867188 43.175781 Z M 0.375 43.144531 " clip-rule="nonzero"/></clipPath><clipPath id="3a3d1b01e8"><rect x="0" width="68" y="0" height="44"/></clipPath><clipPath id="46cf548dad"><path d="M 50.828125 57.574219 L 98.484375 57.574219 L 98.484375 105.234375 L 50.828125 105.234375 Z M 50.828125 57.574219 " clip-rule="nonzero"/></clipPath><clipPath id="f2a9e722e5"><path d="M 74.65625 105.234375 C 87.816406 105.234375 98.484375 94.566406 98.484375 81.40625 C 98.484375 68.242188 87.816406 57.574219 74.65625 57.574219 C 61.496094 57.574219 50.828125 68.242188 50.828125 81.40625 C 50.828125 94.566406 61.496094 105.234375 74.65625 105.234375 Z M 74.65625 105.234375 " clip-rule="nonzero"/></clipPath><clipPath id="3c84f0d3e1"><path d="M 0.828125 0.574219 L 48.484375 0.574219 L 48.484375 48.234375 L 0.828125 48.234375 Z M 0.828125 0.574219 " clip-rule="nonzero"/></clipPath><clipPath id="18f8c11813"><path d="M 24.65625 48.234375 C 37.816406 48.234375 48.484375 37.566406 48.484375 24.40625 C 48.484375 11.242188 37.816406 0.574219 24.65625 0.574219 C 11.496094 0.574219 0.828125 11.242188 0.828125 24.40625 C 0.828125 37.566406 11.496094 48.234375 24.65625 48.234375 Z M 24.65625 48.234375 " clip-rule="nonzero"/></clipPath><clipPath id="b020be7243"><rect x="0" width="49" y="0" height="49"/></clipPath><clipPath id="8fd2f01494"><rect x="0" width="108" y="0" height="127"/></clipPath><clipPath id="7497557b79"><rect x="0" width="250" y="0" height="94"/></clipPath><clipPath id="b5d0f1c192"><rect x="0" width="227" y="0" height="91"/></clipPath></defs><g transform="matrix(1, 0, 0, 1, 60, 227)"><g clip-path="url(#8fd2f01494)"><g clip-path="url(#0fc28216d7)"><g clip-path="url(#0760ba529b)"><g clip-path="url(#67ae9c8f0c)"><g transform="matrix(1, 0, 0, 1, 31, 21)"><g clip-path="url(#90008fd68e)"><g clip-path="url(#5480c75354)"><g clip-path="url(#5015564a84)"><g clip-path="url(#a24782be00)"><path fill="#528fcd" d="M 15.929688 43.628906 L 0.589844 0.757812 L 60.375 -20.632812 L 75.71875 22.238281 Z M 15.929688 43.628906 " fill-opacity="1" fill-rule="nonzero"/></g></g></g></g></g></g></g></g><g clip-path="url(#cbe4fdf948)"><g clip-path="url(#8f82826747)"><g transform="matrix(1, 0, 0, 1, 8, 21)"><g clip-path="url(#eb3373e163)"><g clip-path="url(#fbfe29b97a)"><g clip-path="url(#f6dbbff67e)"><path fill="#528fcd" d="M 0.972656 0.703125 L 48.632812 0.703125 L 48.632812 48.363281 L 0.972656 48.363281 Z M 0.972656 0.703125 " fill-opacity="1" fill-rule="nonzero"/></g></g></g></g></g></g><g clip-path="url(#1631b43e0a)"><g clip-path="url(#a28b713fda)"><g clip-path="url(#2c395dc0d1)"><g transform="matrix(1, 0, 0, 1, 8, 62)"><g clip-path="url(#3a3d1b01e8)"><g clip-path="url(#938b54303c)"><g clip-path="url(#35a008edae)"><g clip-path="url(#38fb234aec)"><path fill="#032757" d="M 52.523438 0.304688 L 67.867188 43.175781 L 8.082031 64.570312 L -7.261719 21.699219 Z M 52.523438 0.304688 " fill-opacity="1" fill-rule="nonzero"/></g></g></g></g></g></g></g></g><g clip-path="url(#46cf548dad)"><g clip-path="url(#f2a9e722e5)"><g transform="matrix(1, 0, 0, 1, 50, 57)"><g clip-path="url(#b020be7243)"><g clip-path="url(#3c84f0d3e1)"><g clip-path="url(#18f8c11813)"><path fill="#032757" d="M 48.484375 48.234375 L 0.828125 48.234375 L 0.828125 0.574219 L 48.484375 0.574219 Z M 48.484375 48.234375 " fill-opacity="1" fill-rule="nonzero"/></g></g></g></g></g></g></g></g><g transform="matrix(1, 0, 0, 1, 173, 260)"><g clip-path="url(#7497557b79)"><g fill="#032757" fill-opacity="1"><g transform="translate(0.678206, 71.032111)"><g><path d="M 21.671875 -44.96875 C 28.890625 -44.96875 34.304688 -43.039062 37.921875 -39.1875 L 29.625 -30.96875 C 27.570312 -33.4375 24.984375 -34.671875 21.859375 -34.671875 C 20.347656 -34.671875 19.125 -34.335938 18.1875 -33.671875 C 17.257812 -33.015625 16.796875 -32.144531 16.796875 -31.0625 C 16.796875 -29.976562 17.410156 -29.148438 18.640625 -28.578125 C 19.878906 -28.003906 21.972656 -27.414062 24.921875 -26.8125 C 30.335938 -25.789062 34.144531 -24.179688 36.34375 -21.984375 C 38.539062 -19.785156 39.640625 -16.910156 39.640625 -13.359375 C 39.640625 -8.847656 37.863281 -5.3125 34.3125 -2.75 C 30.757812 -0.195312 25.789062 1.078125 19.40625 1.078125 C 11.882812 1.078125 6.140625 -0.90625 2.171875 -4.875 L 10.390625 -14 C 13.097656 -10.800781 16.285156 -9.203125 19.953125 -9.203125 C 24.046875 -9.203125 26.09375 -10.257812 26.09375 -12.375 C 26.09375 -13.570312 25.457031 -14.472656 24.1875 -15.078125 C 22.925781 -15.679688 21.242188 -16.191406 19.140625 -16.609375 C 14.691406 -17.453125 11.488281 -18.398438 9.53125 -19.453125 C 7.570312 -20.515625 6.035156 -21.898438 4.921875 -23.609375 C 3.804688 -25.328125 3.25 -27.507812 3.25 -30.15625 C 3.25 -34.613281 4.929688 -38.195312 8.296875 -40.90625 C 11.671875 -43.613281 16.128906 -44.96875 21.671875 -44.96875 Z M 21.671875 -44.96875 "/></g></g></g><g fill="#032757" fill-opacity="1"><g transform="translate(42.481519, 71.032111)"><g><path d="M 18.328125 -68.265625 L 18.328125 -26.546875 L 33.3125 -43.890625 L 49.9375 -43.890625 L 32.5 -24.109375 L 50.390625 0 L 33.3125 0 L 18.515625 -22.21875 L 18.328125 -22.21875 L 18.328125 0 L 4.78125 0 L 4.78125 -68.265625 Z M 18.328125 -68.265625 "/></g></g></g><g fill="#032757" fill-opacity="1"><g transform="translate(92.68164, 71.032111)"><g><path d="M 11.734375 -65.5625 C 13.847656 -65.5625 15.6875 -64.804688 17.25 -63.296875 C 18.8125 -61.796875 19.59375 -59.929688 19.59375 -57.703125 C 19.59375 -55.472656 18.8125 -53.601562 17.25 -52.09375 C 15.6875 -50.59375 13.847656 -49.84375 11.734375 -49.84375 C 9.503906 -49.84375 7.632812 -50.625 6.125 -52.1875 C 4.625 -53.757812 3.875 -55.597656 3.875 -57.703125 C 3.875 -59.929688 4.65625 -61.796875 6.21875 -63.296875 C 7.789062 -64.804688 9.628906 -65.5625 11.734375 -65.5625 Z M 18.515625 -43.890625 L 18.515625 0 L 4.96875 0 L 4.96875 -43.890625 Z M 18.515625 -43.890625 "/></g></g></g><g fill="#032757" fill-opacity="1"><g transform="translate(116.15652, 71.032111)"><g><path d="M 18.515625 -68.265625 L 18.515625 0 L 4.96875 0 L 4.96875 -68.265625 Z M 18.515625 -68.265625 "/></g></g></g><g fill="#032757" fill-opacity="1"><g transform="translate(139.6314, 71.032111)"><g><path d="M 18.515625 -68.265625 L 18.515625 0 L 4.96875 0 L 4.96875 -68.265625 Z M 18.515625 -68.265625 "/></g></g></g><g fill="#032757" fill-opacity="1"><g transform="translate(163.10628, 71.032111)"><g><path d="M 24.734375 -44.96875 C 31.722656 -44.96875 36.8125 -43.28125 40 -39.90625 C 43.1875 -36.539062 44.78125 -30.882812 44.78125 -22.9375 L 44.78125 0 L 32.328125 0 L 32.328125 -5.515625 L 32.140625 -5.515625 C 29.316406 -1.117188 24.679688 1.078125 18.234375 1.078125 C 13.660156 1.078125 9.914062 -0.164062 7 -2.65625 C 4.082031 -5.15625 2.625 -8.425781 2.625 -12.46875 C 2.625 -15.957031 3.613281 -18.859375 5.59375 -21.171875 C 7.582031 -23.492188 10.578125 -25.195312 14.578125 -26.28125 C 18.585938 -27.363281 24.503906 -27.90625 32.328125 -27.90625 C 32.328125 -30.25 31.453125 -32.140625 29.703125 -33.578125 C 27.960938 -35.023438 25.945312 -35.75 23.65625 -35.75 C 19.445312 -35.75 15.773438 -34.003906 12.640625 -30.515625 L 5.421875 -37.921875 C 7.941406 -40.390625 10.929688 -42.179688 14.390625 -43.296875 C 17.859375 -44.410156 21.304688 -44.96875 24.734375 -44.96875 Z M 15.625 -12.90625 C 15.625 -11.46875 16.238281 -10.3125 17.46875 -9.4375 C 18.707031 -8.5625 20.257812 -8.125 22.125 -8.125 C 25.132812 -8.125 27.585938 -8.890625 29.484375 -10.421875 C 31.378906 -11.960938 32.328125 -13.96875 32.328125 -16.4375 L 32.328125 -19.234375 L 28.265625 -19.234375 C 24.171875 -19.234375 21.039062 -18.675781 18.875 -17.5625 C 16.707031 -16.445312 15.625 -14.894531 15.625 -12.90625 Z M 15.625 -12.90625 "/></g></g></g><g fill="#032757" fill-opacity="1"><g transform="translate(211.590929, 71.032111)"><g><path d="M 31.25 -44.96875 C 33.113281 -44.96875 34.585938 -44.816406 35.671875 -44.515625 L 35.671875 -32.140625 C 33.617188 -32.742188 31.691406 -33.046875 29.890625 -33.046875 C 25.796875 -33.046875 22.84375 -32.035156 21.03125 -30.015625 C 19.226562 -28.003906 18.328125 -24.289062 18.328125 -18.875 L 18.328125 0 L 4.78125 0 L 4.78125 -43.890625 L 18.328125 -43.890625 L 18.328125 -36.84375 L 18.515625 -36.84375 C 19.953125 -39.550781 21.664062 -41.582031 23.65625 -42.9375 C 25.644531 -44.289062 28.175781 -44.96875 31.25 -44.96875 Z M 31.25 -44.96875 "/></g></g></g></g></g><g transform="matrix(1, 0, 0, 1, 421, 263)"><g clip-path="url(#b5d0f1c192)"><g fill="#528fcd" fill-opacity="1"><g transform="translate(0.413817, 68.032111)"><g><path d="M 51.203125 -63.9375 L 51.203125 -51.46875 L 32.953125 -51.46875 L 32.953125 0 L 18.875 0 L 18.875 -51.46875 L 0.625 -51.46875 L 0.625 -63.9375 Z M 51.203125 -63.9375 "/></g></g></g><g fill="#528fcd" fill-opacity="1"><g transform="translate(43.931464, 68.032111)"><g><path d="M 18.328125 -43.890625 L 18.328125 -22.125 C 18.328125 -18.875 18.550781 -16.585938 19 -15.265625 C 19.457031 -13.941406 20.195312 -12.867188 21.21875 -12.046875 C 22.238281 -11.234375 23.625 -10.828125 25.375 -10.828125 C 28.257812 -10.828125 30.332031 -11.710938 31.59375 -13.484375 C 32.863281 -15.265625 33.5 -17.992188 33.5 -21.671875 L 33.5 -43.890625 L 47.046875 -43.890625 L 47.046875 0 L 34.046875 0 L 34.046875 -5.953125 L 33.859375 -5.953125 C 32.660156 -3.734375 30.929688 -2.003906 28.671875 -0.765625 C 26.410156 0.460938 23.835938 1.078125 20.953125 1.078125 C 15.171875 1.078125 11.03125 -0.53125 8.53125 -3.75 C 6.03125 -6.96875 4.78125 -12.097656 4.78125 -19.140625 L 4.78125 -43.890625 Z M 18.328125 -43.890625 "/></g></g></g><g fill="#528fcd" fill-opacity="1"><g transform="translate(95.756746, 68.032111)"><g><path d="M 22.75 -56.890625 L 22.75 -43.890625 L 34.671875 -43.890625 L 34.671875 -33.046875 L 22.75 -33.046875 L 22.75 -17.609375 C 22.75 -14.898438 23.242188 -13.003906 24.234375 -11.921875 C 25.234375 -10.835938 26.878906 -10.296875 29.171875 -10.296875 C 31.992188 -10.296875 33.828125 -10.71875 34.671875 -11.5625 L 34.671875 -0.265625 C 32.085938 0.628906 28.925781 1.078125 25.1875 1.078125 C 19.894531 1.078125 15.90625 -0.078125 13.21875 -2.390625 C 10.539062 -4.710938 9.203125 -7.859375 9.203125 -11.828125 L 9.203125 -33.046875 L 0.546875 -33.046875 L 0.546875 -43.890625 L 9.203125 -43.890625 L 9.203125 -56.890625 Z M 22.75 -56.890625 "/></g></g></g><g fill="#528fcd" fill-opacity="1"><g transform="translate(132.503956, 68.032111)"><g><path d="M 27.546875 -44.96875 C 34.648438 -44.96875 40.488281 -42.800781 45.0625 -38.46875 C 49.632812 -34.132812 51.921875 -28.625 51.921875 -21.9375 C 51.921875 -15.132812 49.585938 -9.597656 44.921875 -5.328125 C 40.253906 -1.054688 34.460938 1.078125 27.546875 1.078125 C 20.492188 1.078125 14.664062 -1.054688 10.0625 -5.328125 C 5.457031 -9.597656 3.15625 -15.132812 3.15625 -21.9375 C 3.15625 -28.6875 5.441406 -34.210938 10.015625 -38.515625 C 14.597656 -42.816406 20.441406 -44.96875 27.546875 -44.96875 Z M 16.703125 -21.9375 C 16.703125 -18.625 17.664062 -15.941406 19.59375 -13.890625 C 21.519531 -11.847656 24.171875 -10.828125 27.546875 -10.828125 C 30.847656 -10.828125 33.476562 -11.820312 35.4375 -13.8125 C 37.394531 -15.800781 38.375 -18.507812 38.375 -21.9375 C 38.375 -25.375 37.394531 -28.082031 35.4375 -30.0625 C 33.476562 -32.050781 30.816406 -33.046875 27.453125 -33.046875 C 24.140625 -33.046875 21.519531 -32.003906 19.59375 -29.921875 C 17.664062 -27.847656 16.703125 -25.1875 16.703125 -21.9375 Z M 16.703125 -21.9375 "/></g></g></g><g fill="#528fcd" fill-opacity="1"><g transform="translate(187.579599, 68.032111)"><g><path d="M 31.25 -44.96875 C 33.113281 -44.96875 34.585938 -44.816406 35.671875 -44.515625 L 35.671875 -32.140625 C 33.617188 -32.742188 31.691406 -33.046875 29.890625 -33.046875 C 25.796875 -33.046875 22.84375 -32.035156 21.03125 -30.015625 C 19.226562 -28.003906 18.328125 -24.289062 18.328125 -18.875 L 18.328125 0 L 4.78125 0 L 4.78125 -43.890625 L 18.328125 -43.890625 L 18.328125 -36.84375 L 18.515625 -36.84375 C 19.953125 -39.550781 21.664062 -41.582031 23.65625 -42.9375 C 25.644531 -44.289062 28.175781 -44.96875 31.25 -44.96875 Z M 31.25 -44.96875 "/></g></g></g></g></g></svg>