<svg xmlns="http://www.w3.org/2000/svg" xmlns:xlink="http://www.w3.org/1999/xlink" width="320" zoomAndPan="magnify" viewBox="0 0 240 239.999995" height="320" preserveAspectRatio="xMidYMid meet" version="1.0"><defs><clipPath id="73b89006c5"><path d="M 59 40 L 189 40 L 189 123 L 59 123 Z M 59 40 " clip-rule="nonzero"/></clipPath><clipPath id="f9897291fe"><path d="M 89.074219 122.210938 L 59.90625 40.695312 L 173.898438 -0.09375 L 203.066406 81.421875 Z M 89.074219 122.210938 " clip-rule="nonzero"/></clipPath><clipPath id="49d8e49879"><path d="M 188.230469 40.753906 L 89.074219 122.210938 L 59.90625 40.695312 Z M 188.230469 40.753906 " clip-rule="nonzero"/></clipPath><clipPath id="257a999fcb"><path d="M 0.761719 0.558594 L 129.398438 0.558594 L 129.398438 82.398438 L 0.761719 82.398438 Z M 0.761719 0.558594 " clip-rule="nonzero"/></clipPath><clipPath id="f6a2d83b89"><path d="M 30.074219 82.210938 L 0.90625 0.695312 L 114.898438 -40.09375 L 144.066406 41.421875 Z M 30.074219 82.210938 " clip-rule="nonzero"/></clipPath><clipPath id="fd6aff3e9b"><path d="M 129.230469 0.753906 L 30.074219 82.210938 L 0.90625 0.695312 Z M 129.230469 0.753906 " clip-rule="nonzero"/></clipPath><clipPath id="dca1722b95"><rect x="0" width="130" y="0" height="83"/></clipPath><clipPath id="df2a5738f7"><path d="M 16.898438 40.585938 L 107.519531 40.585938 L 107.519531 131.203125 L 16.898438 131.203125 Z M 16.898438 40.585938 " clip-rule="nonzero"/></clipPath><clipPath id="894146c5d8"><path d="M 62.210938 40.585938 C 37.183594 40.585938 16.898438 60.871094 16.898438 85.894531 C 16.898438 110.917969 37.183594 131.203125 62.210938 131.203125 C 87.234375 131.203125 107.519531 110.917969 107.519531 85.894531 C 107.519531 60.871094 87.234375 40.585938 62.210938 40.585938 Z M 62.210938 40.585938 " clip-rule="nonzero"/></clipPath><clipPath id="9eaf87b2ef"><path d="M 0.898438 0.585938 L 91.519531 0.585938 L 91.519531 91.203125 L 0.898438 91.203125 Z M 0.898438 0.585938 " clip-rule="nonzero"/></clipPath><clipPath id="18805ca79a"><path d="M 46.210938 0.585938 C 21.183594 0.585938 0.898438 20.871094 0.898438 45.894531 C 0.898438 70.917969 21.183594 91.203125 46.210938 91.203125 C 71.234375 91.203125 91.519531 70.917969 91.519531 45.894531 C 91.519531 20.871094 71.234375 0.585938 46.210938 0.585938 Z M 46.210938 0.585938 " clip-rule="nonzero"/></clipPath><clipPath id="772b288072"><rect x="0" width="92" y="0" height="92"/></clipPath><clipPath id="25fb7f2db7"><path d="M 15 117 L 145 117 L 145 200 L 15 200 Z M 15 117 " clip-rule="nonzero"/></clipPath><clipPath id="235fbb43c6"><path d="M 114.921875 117.789062 L 144.089844 199.300781 L 30.09375 240.089844 L 0.925781 158.578125 Z M 114.921875 117.789062 " clip-rule="nonzero"/></clipPath><clipPath id="4b4da68a08"><path d="M 15.761719 199.246094 L 114.921875 117.789062 L 144.089844 199.300781 Z M 15.761719 199.246094 " clip-rule="nonzero"/></clipPath><clipPath id="4cc55db934"><path d="M 0.601562 0.601562 L 129.238281 0.601562 L 129.238281 82.441406 L 0.601562 82.441406 Z M 0.601562 0.601562 " clip-rule="nonzero"/></clipPath><clipPath id="d0245a32cc"><path d="M 99.921875 0.789062 L 129.089844 82.300781 L 15.09375 123.089844 L -14.074219 41.578125 Z M 99.921875 0.789062 " clip-rule="nonzero"/></clipPath><clipPath id="acb65d2aff"><path d="M 0.761719 82.246094 L 99.921875 0.789062 L 129.089844 82.300781 Z M 0.761719 82.246094 " clip-rule="nonzero"/></clipPath><clipPath id="1366f8b7ae"><rect x="0" width="130" y="0" height="83"/></clipPath><clipPath id="45bf0d38fa"><path d="M 96.480469 108.792969 L 187.097656 108.792969 L 187.097656 199.414062 L 96.480469 199.414062 Z M 96.480469 108.792969 " clip-rule="nonzero"/></clipPath><clipPath id="aa6957d2a1"><path d="M 141.789062 199.414062 C 166.8125 199.414062 187.097656 179.125 187.097656 154.101562 C 187.097656 129.078125 166.8125 108.792969 141.789062 108.792969 C 116.765625 108.792969 96.480469 129.078125 96.480469 154.101562 C 96.480469 179.125 116.765625 199.414062 141.789062 199.414062 Z M 141.789062 199.414062 " clip-rule="nonzero"/></clipPath><clipPath id="52b677059d"><path d="M 0.480469 0.792969 L 91.097656 0.792969 L 91.097656 91.414062 L 0.480469 91.414062 Z M 0.480469 0.792969 " clip-rule="nonzero"/></clipPath><clipPath id="4eebec2f60"><path d="M 45.789062 91.414062 C 70.8125 91.414062 91.097656 71.125 91.097656 46.101562 C 91.097656 21.078125 70.8125 0.792969 45.789062 0.792969 C 20.765625 0.792969 0.480469 21.078125 0.480469 46.101562 C 0.480469 71.125 20.765625 91.414062 45.789062 91.414062 Z M 45.789062 91.414062 " clip-rule="nonzero"/></clipPath><clipPath id="5daaac1bc3"><rect x="0" width="92" y="0" height="92"/></clipPath><clipPath id="fa3e082716"><rect x="0" width="204" y="0" height="240"/></clipPath></defs><g transform="matrix(1, 0, 0, 1, 18, 0)"><g clip-path="url(#fa3e082716)"><g clip-path="url(#73b89006c5)"><g clip-path="url(#f9897291fe)"><g clip-path="url(#49d8e49879)"><g transform="matrix(1, 0, 0, 1, 59, 40)"><g clip-path="url(#dca1722b95)"><g clip-path="url(#257a999fcb)"><g clip-path="url(#f6a2d83b89)"><g clip-path="url(#fd6aff3e9b)"><path fill="#528fcd" d="M 30.074219 82.210938 L 0.90625 0.695312 L 114.582031 -39.980469 L 143.75 41.535156 Z M 30.074219 82.210938 " fill-opacity="1" fill-rule="nonzero"/></g></g></g></g></g></g></g></g><g clip-path="url(#df2a5738f7)"><g clip-path="url(#894146c5d8)"><g transform="matrix(1, 0, 0, 1, 16, 40)"><g clip-path="url(#772b288072)"><g clip-path="url(#9eaf87b2ef)"><g clip-path="url(#18805ca79a)"><path fill="#528fcd" d="M 0.898438 0.585938 L 91.519531 0.585938 L 91.519531 91.203125 L 0.898438 91.203125 Z M 0.898438 0.585938 " fill-opacity="1" fill-rule="nonzero"/></g></g></g></g></g></g><g clip-path="url(#25fb7f2db7)"><g clip-path="url(#235fbb43c6)"><g clip-path="url(#4b4da68a08)"><g transform="matrix(1, 0, 0, 1, 15, 117)"><g clip-path="url(#1366f8b7ae)"><g clip-path="url(#4cc55db934)"><g clip-path="url(#d0245a32cc)"><g clip-path="url(#acb65d2aff)"><path fill="#032757" d="M 99.921875 0.789062 L 129.089844 82.300781 L 15.414062 122.976562 L -13.753906 41.464844 Z M 99.921875 0.789062 " fill-opacity="1" fill-rule="nonzero"/></g></g></g></g></g></g></g></g><g clip-path="url(#45bf0d38fa)"><g clip-path="url(#aa6957d2a1)"><g transform="matrix(1, 0, 0, 1, 96, 108)"><g clip-path="url(#5daaac1bc3)"><g clip-path="url(#52b677059d)"><g clip-path="url(#4eebec2f60)"><path fill="#032757" d="M 91.097656 91.414062 L 0.480469 91.414062 L 0.480469 0.792969 L 91.097656 0.792969 Z M 91.097656 91.414062 " fill-opacity="1" fill-rule="nonzero"/></g></g></g></g></g></g></g></g></svg>