<svg width="128" height="128" viewBox="0 0 128 128" xmlns="http://www.w3.org/2000/svg">
  <defs>
    <linearGradient id="grad" x1="0%" y1="0%" x2="100%" y2="100%">
      <stop offset="0%" stop-color="#2563eb"/>
      <stop offset="100%" stop-color="#1d4ed8"/>
    </linearGradient>
  </defs>
  <rect x="8" y="8" width="112" height="112" rx="28" fill="url(#grad)"/>
  <path d="M46 92c-7 0-13-4-16-9l10-6c1 2 3 3 6 3 3 0 5-1 5-3 0-2-1-3-6-5-9-3-15-8-15-17 0-8 6-15 15-18V25h12v12c6 1 11 4 14 8l-10 6c-2-2-4-3-7-3-3 0-5 1-5 3 0 2 2 3 7 5 9 3 15 8 15 18 0 9-6 16-15 18v11H46V92z" fill="#fff"/>
</svg>

