<svg xmlns="http://www.w3.org/2000/svg" xmlns:xlink="http://www.w3.org/1999/xlink" width="640" zoomAndPan="magnify" viewBox="0 0 480 239.999995" height="320" preserveAspectRatio="xMidYMid meet" version="1.0"><defs><g/><clipPath id="b9535d59fb"><path d="M 19 13 L 62 13 L 62 40 L 19 40 Z M 19 13 " clip-rule="nonzero"/></clipPath><clipPath id="3f57d82bd4"><path d="M 29.265625 39.714844 L 19.828125 13.335938 L 56.714844 0.136719 L 66.15625 26.515625 Z M 29.265625 39.714844 " clip-rule="nonzero"/></clipPath><clipPath id="2b9bb160d4"><path d="M 61.355469 13.355469 L 29.265625 39.714844 L 19.828125 13.335938 Z M 61.355469 13.355469 " clip-rule="nonzero"/></clipPath><clipPath id="39cc0c94bf"><path d="M 0.761719 0.320312 L 42.519531 0.320312 L 42.519531 26.71875 L 0.761719 26.71875 Z M 0.761719 0.320312 " clip-rule="nonzero"/></clipPath><clipPath id="ca5d276ecd"><path d="M 10.265625 26.714844 L 0.828125 0.335938 L 37.714844 -12.863281 L 47.15625 13.515625 Z M 10.265625 26.714844 " clip-rule="nonzero"/></clipPath><clipPath id="c6d6fb4d11"><path d="M 42.355469 0.355469 L 10.265625 26.714844 L 0.828125 0.335938 Z M 42.355469 0.355469 " clip-rule="nonzero"/></clipPath><clipPath id="54ac776830"><rect x="0" width="43" y="0" height="27"/></clipPath><clipPath id="a136e488cb"><path d="M 5.910156 13.300781 L 35.234375 13.300781 L 35.234375 42.625 L 5.910156 42.625 Z M 5.910156 13.300781 " clip-rule="nonzero"/></clipPath><clipPath id="4b19cefa0e"><path d="M 20.574219 13.300781 C 12.476562 13.300781 5.910156 19.867188 5.910156 27.964844 C 5.910156 36.0625 12.476562 42.625 20.574219 42.625 C 28.671875 42.625 35.234375 36.0625 35.234375 27.964844 C 35.234375 19.867188 28.671875 13.300781 20.574219 13.300781 Z M 20.574219 13.300781 " clip-rule="nonzero"/></clipPath><clipPath id="a9cf01c207"><path d="M 0.910156 0.300781 L 30.234375 0.300781 L 30.234375 29.625 L 0.910156 29.625 Z M 0.910156 0.300781 " clip-rule="nonzero"/></clipPath><clipPath id="b04e2a01fe"><path d="M 15.574219 0.300781 C 7.476562 0.300781 0.910156 6.867188 0.910156 14.964844 C 0.910156 23.0625 7.476562 29.625 15.574219 29.625 C 23.671875 29.625 30.234375 23.0625 30.234375 14.964844 C 30.234375 6.867188 23.671875 0.300781 15.574219 0.300781 Z M 15.574219 0.300781 " clip-rule="nonzero"/></clipPath><clipPath id="b6151eb0a0"><rect x="0" width="31" y="0" height="30"/></clipPath><clipPath id="76098c03ca"><path d="M 5 38 L 48 38 L 48 65 L 5 65 Z M 5 38 " clip-rule="nonzero"/></clipPath><clipPath id="27d1b29cc8"><path d="M 37.628906 38.285156 L 47.070312 64.664062 L 10.179688 77.863281 L 0.742188 51.484375 Z M 37.628906 38.285156 " clip-rule="nonzero"/></clipPath><clipPath id="e487df367f"><path d="M 5.542969 64.644531 L 37.628906 38.285156 L 47.070312 64.664062 Z M 5.542969 64.644531 " clip-rule="nonzero"/></clipPath><clipPath id="53f3869cf6"><path d="M 0.359375 0.28125 L 42.121094 0.28125 L 42.121094 26.679688 L 0.359375 26.679688 Z M 0.359375 0.28125 " clip-rule="nonzero"/></clipPath><clipPath id="e90f45e56d"><path d="M 32.628906 0.285156 L 42.070312 26.664062 L 5.179688 39.863281 L -4.257812 13.484375 Z M 32.628906 0.285156 " clip-rule="nonzero"/></clipPath><clipPath id="78f762c279"><path d="M 0.542969 26.644531 L 32.628906 0.285156 L 42.070312 26.664062 Z M 0.542969 26.644531 " clip-rule="nonzero"/></clipPath><clipPath id="05de537742"><rect x="0" width="43" y="0" height="27"/></clipPath><clipPath id="67c04df13d"><path d="M 31.664062 35.375 L 60.988281 35.375 L 60.988281 64.699219 L 31.664062 64.699219 Z M 31.664062 35.375 " clip-rule="nonzero"/></clipPath><clipPath id="cc6c50f500"><path d="M 46.324219 64.699219 C 54.421875 64.699219 60.988281 58.132812 60.988281 50.035156 C 60.988281 41.9375 54.421875 35.375 46.324219 35.375 C 38.226562 35.375 31.664062 41.9375 31.664062 50.035156 C 31.664062 58.132812 38.226562 64.699219 46.324219 64.699219 Z M 46.324219 64.699219 " clip-rule="nonzero"/></clipPath><clipPath id="147fad5f24"><path d="M 0.664062 0.375 L 29.988281 0.375 L 29.988281 29.699219 L 0.664062 29.699219 Z M 0.664062 0.375 " clip-rule="nonzero"/></clipPath><clipPath id="358a03babc"><path d="M 15.324219 29.699219 C 23.421875 29.699219 29.988281 23.132812 29.988281 15.035156 C 29.988281 6.9375 23.421875 0.375 15.324219 0.375 C 7.226562 0.375 0.664062 6.9375 0.664062 15.035156 C 0.664062 23.132812 7.226562 29.699219 15.324219 29.699219 Z M 15.324219 29.699219 " clip-rule="nonzero"/></clipPath><clipPath id="5ffaa635b2"><rect x="0" width="30" y="0" height="30"/></clipPath><clipPath id="8c52a01ffd"><rect x="0" width="167" y="0" height="63"/></clipPath><clipPath id="be07d54035"><path d="M 231 13 L 375.679688 13 L 375.679688 76 L 231 76 Z M 231 13 " clip-rule="nonzero"/></clipPath><clipPath id="e3a25dbd25"><rect x="0" width="145" y="0" height="63"/></clipPath><clipPath id="1e38406c3f"><rect x="0" width="376" y="0" height="78"/></clipPath></defs><g transform="matrix(1, 0, 0, 1, 52, 81)"><g clip-path="url(#1e38406c3f)"><g clip-path="url(#b9535d59fb)"><g clip-path="url(#3f57d82bd4)"><g clip-path="url(#2b9bb160d4)"><g transform="matrix(1, 0, 0, 1, 19, 13)"><g clip-path="url(#54ac776830)"><g clip-path="url(#39cc0c94bf)"><g clip-path="url(#ca5d276ecd)"><g clip-path="url(#c6d6fb4d11)"><path fill="#528fcd" d="M 10.265625 26.714844 L 0.828125 0.335938 L 37.613281 -12.828125 L 47.050781 13.550781 Z M 10.265625 26.714844 " fill-opacity="1" fill-rule="nonzero"/></g></g></g></g></g></g></g></g><g clip-path="url(#a136e488cb)"><g clip-path="url(#4b19cefa0e)"><g transform="matrix(1, 0, 0, 1, 5, 13)"><g clip-path="url(#b6151eb0a0)"><g clip-path="url(#a9cf01c207)"><g clip-path="url(#b04e2a01fe)"><path fill="#528fcd" d="M 0.910156 0.300781 L 30.234375 0.300781 L 30.234375 29.625 L 0.910156 29.625 Z M 0.910156 0.300781 " fill-opacity="1" fill-rule="nonzero"/></g></g></g></g></g></g><g clip-path="url(#76098c03ca)"><g clip-path="url(#27d1b29cc8)"><g clip-path="url(#e487df367f)"><g transform="matrix(1, 0, 0, 1, 5, 38)"><g clip-path="url(#05de537742)"><g clip-path="url(#53f3869cf6)"><g clip-path="url(#e90f45e56d)"><g clip-path="url(#78f762c279)"><path fill="#032757" d="M 32.628906 0.285156 L 42.070312 26.664062 L 5.285156 39.824219 L -4.15625 13.445312 Z M 32.628906 0.285156 " fill-opacity="1" fill-rule="nonzero"/></g></g></g></g></g></g></g></g><g clip-path="url(#67c04df13d)"><g clip-path="url(#cc6c50f500)"><g transform="matrix(1, 0, 0, 1, 31, 35)"><g clip-path="url(#5ffaa635b2)"><g clip-path="url(#147fad5f24)"><g clip-path="url(#358a03babc)"><path fill="#032757" d="M 29.988281 29.699219 L 0.664062 29.699219 L 0.664062 0.375 L 29.988281 0.375 Z M 29.988281 29.699219 " fill-opacity="1" fill-rule="nonzero"/></g></g></g></g></g></g><g transform="matrix(1, 0, 0, 1, 65, 13)"><g clip-path="url(#8c52a01ffd)"><g fill="#032757" fill-opacity="1"><g transform="translate(1.074636, 51.962557)"><g><path d="M 12.28125 -5.953125 C 13.800781 -5.953125 14.875 -6.097656 15.5 -6.390625 C 16.132812 -6.691406 16.453125 -7.265625 16.453125 -8.109375 C 16.453125 -8.773438 16.039062 -9.359375 15.21875 -9.859375 C 14.40625 -10.359375 13.164062 -10.925781 11.5 -11.5625 C 10.207031 -12.039062 9.03125 -12.539062 7.96875 -13.0625 C 6.914062 -13.582031 6.019531 -14.203125 5.28125 -14.921875 C 4.539062 -15.640625 3.96875 -16.5 3.5625 -17.5 C 3.15625 -18.5 2.953125 -19.707031 2.953125 -21.125 C 2.953125 -23.863281 3.96875 -26.03125 6 -27.625 C 8.039062 -29.21875 10.835938 -30.015625 14.390625 -30.015625 C 16.171875 -30.015625 17.875 -29.851562 19.5 -29.53125 C 21.132812 -29.21875 22.429688 -28.878906 23.390625 -28.515625 L 21.953125 -22.0625 C 20.992188 -22.394531 19.945312 -22.691406 18.8125 -22.953125 C 17.6875 -23.210938 16.414062 -23.34375 15 -23.34375 C 12.40625 -23.34375 11.109375 -22.617188 11.109375 -21.171875 C 11.109375 -20.835938 11.164062 -20.539062 11.28125 -20.28125 C 11.394531 -20.019531 11.617188 -19.769531 11.953125 -19.53125 C 12.285156 -19.289062 12.738281 -19.03125 13.3125 -18.75 C 13.882812 -18.476562 14.613281 -18.175781 15.5 -17.84375 C 17.320312 -17.175781 18.820312 -16.515625 20 -15.859375 C 21.1875 -15.210938 22.125 -14.507812 22.8125 -13.75 C 23.5 -12.988281 23.976562 -12.144531 24.25 -11.21875 C 24.53125 -10.300781 24.671875 -9.226562 24.671875 -8 C 24.671875 -5.113281 23.585938 -2.925781 21.421875 -1.4375 C 19.253906 0.0390625 16.191406 0.78125 12.234375 0.78125 C 9.640625 0.78125 7.476562 0.554688 5.75 0.109375 C 4.03125 -0.335938 2.835938 -0.707031 2.171875 -1 L 3.5625 -7.71875 C 4.96875 -7.164062 6.410156 -6.734375 7.890625 -6.421875 C 9.367188 -6.109375 10.832031 -5.953125 12.28125 -5.953125 Z M 12.28125 -5.953125 "/></g></g></g><g fill="#032757" fill-opacity="1"><g transform="translate(28.026777, 51.962557)"><g><path d="M 12.171875 -18.671875 C 12.984375 -19.566406 13.820312 -20.492188 14.6875 -21.453125 C 15.5625 -22.410156 16.40625 -23.363281 17.21875 -24.3125 C 18.039062 -25.257812 18.8125 -26.160156 19.53125 -27.015625 C 20.257812 -27.867188 20.878906 -28.609375 21.390625 -29.234375 L 31.234375 -29.234375 C 29.273438 -26.972656 27.359375 -24.8125 25.484375 -22.75 C 23.609375 -20.695312 21.5625 -18.578125 19.34375 -16.390625 C 20.457031 -15.390625 21.601562 -14.195312 22.78125 -12.8125 C 23.96875 -11.425781 25.117188 -9.988281 26.234375 -8.5 C 27.347656 -7.019531 28.363281 -5.535156 29.28125 -4.046875 C 30.207031 -2.566406 30.988281 -1.21875 31.625 0 L 22.125 0 C 21.53125 -0.957031 20.851562 -2.019531 20.09375 -3.1875 C 19.332031 -4.363281 18.523438 -5.535156 17.671875 -6.703125 C 16.816406 -7.867188 15.914062 -8.988281 14.96875 -10.0625 C 14.03125 -11.132812 13.097656 -12.039062 12.171875 -12.78125 L 12.171875 0 L 3.890625 0 L 3.890625 -41.796875 L 12.171875 -43.125 Z M 12.171875 -18.671875 "/></g></g></g><g fill="#032757" fill-opacity="1"><g transform="translate(60.202635, 51.962557)"><g><path d="M 12.171875 0 L 3.890625 0 L 3.890625 -29.234375 L 12.171875 -29.234375 Z M 12.953125 -37.6875 C 12.953125 -36.164062 12.457031 -34.96875 11.46875 -34.09375 C 10.488281 -33.226562 9.332031 -32.796875 8 -32.796875 C 6.664062 -32.796875 5.507812 -33.226562 4.53125 -34.09375 C 3.550781 -34.96875 3.0625 -36.164062 3.0625 -37.6875 C 3.0625 -39.195312 3.550781 -40.390625 4.53125 -41.265625 C 5.507812 -42.140625 6.664062 -42.578125 8 -42.578125 C 9.332031 -42.578125 10.488281 -42.140625 11.46875 -41.265625 C 12.457031 -40.390625 12.953125 -39.195312 12.953125 -37.6875 Z M 12.953125 -37.6875 "/></g></g></g><g fill="#032757" fill-opacity="1"><g transform="translate(76.262776, 51.962557)"><g><path d="M 15.5625 0.5625 C 13.15625 0.519531 11.203125 0.257812 9.703125 -0.21875 C 8.203125 -0.695312 7.015625 -1.375 6.140625 -2.25 C 5.265625 -3.125 4.671875 -4.179688 4.359375 -5.421875 C 4.046875 -6.660156 3.890625 -8.054688 3.890625 -9.609375 L 3.890625 -41.796875 L 12.171875 -43.125 L 12.171875 -11.28125 C 12.171875 -10.539062 12.222656 -9.875 12.328125 -9.28125 C 12.441406 -8.6875 12.65625 -8.1875 12.96875 -7.78125 C 13.289062 -7.375 13.75 -7.039062 14.34375 -6.78125 C 14.9375 -6.519531 15.734375 -6.351562 16.734375 -6.28125 Z M 15.5625 0.5625 "/></g></g></g><g fill="#032757" fill-opacity="1"><g transform="translate(93.823349, 51.962557)"><g><path d="M 15.5625 0.5625 C 13.15625 0.519531 11.203125 0.257812 9.703125 -0.21875 C 8.203125 -0.695312 7.015625 -1.375 6.140625 -2.25 C 5.265625 -3.125 4.671875 -4.179688 4.359375 -5.421875 C 4.046875 -6.660156 3.890625 -8.054688 3.890625 -9.609375 L 3.890625 -41.796875 L 12.171875 -43.125 L 12.171875 -11.28125 C 12.171875 -10.539062 12.222656 -9.875 12.328125 -9.28125 C 12.441406 -8.6875 12.65625 -8.1875 12.96875 -7.78125 C 13.289062 -7.375 13.75 -7.039062 14.34375 -6.78125 C 14.9375 -6.519531 15.734375 -6.351562 16.734375 -6.28125 Z M 15.5625 0.5625 "/></g></g></g><g fill="#032757" fill-opacity="1"><g transform="translate(112.217526, 51.962557)"><g><path d="M 15.0625 -5.78125 C 15.875 -5.78125 16.648438 -5.796875 17.390625 -5.828125 C 18.128906 -5.867188 18.722656 -5.925781 19.171875 -6 L 19.171875 -12.28125 C 18.835938 -12.351562 18.335938 -12.425781 17.671875 -12.5 C 17.003906 -12.570312 16.394531 -12.609375 15.84375 -12.609375 C 15.0625 -12.609375 14.328125 -12.5625 13.640625 -12.46875 C 12.953125 -12.382812 12.347656 -12.210938 11.828125 -11.953125 C 11.316406 -11.691406 10.910156 -11.335938 10.609375 -10.890625 C 10.316406 -10.441406 10.171875 -9.882812 10.171875 -9.21875 C 10.171875 -7.925781 10.601562 -7.03125 11.46875 -6.53125 C 12.34375 -6.03125 13.539062 -5.78125 15.0625 -5.78125 Z M 14.390625 -30.015625 C 16.835938 -30.015625 18.875 -29.734375 20.5 -29.171875 C 22.132812 -28.617188 23.441406 -27.820312 24.421875 -26.78125 C 25.410156 -25.75 26.109375 -24.488281 26.515625 -23 C 26.921875 -21.519531 27.125 -19.875 27.125 -18.0625 L 27.125 -0.828125 C 25.9375 -0.566406 24.285156 -0.265625 22.171875 0.078125 C 20.054688 0.429688 17.5 0.609375 14.5 0.609375 C 12.613281 0.609375 10.898438 0.441406 9.359375 0.109375 C 7.828125 -0.222656 6.503906 -0.769531 5.390625 -1.53125 C 4.273438 -2.289062 3.421875 -3.28125 2.828125 -4.5 C 2.234375 -5.71875 1.9375 -7.21875 1.9375 -9 C 1.9375 -10.707031 2.28125 -12.15625 2.96875 -13.34375 C 3.65625 -14.53125 4.570312 -15.472656 5.71875 -16.171875 C 6.875 -16.878906 8.191406 -17.390625 9.671875 -17.703125 C 11.148438 -18.015625 12.6875 -18.171875 14.28125 -18.171875 C 15.351562 -18.171875 16.304688 -18.125 17.140625 -18.03125 C 17.972656 -17.9375 18.648438 -17.816406 19.171875 -17.671875 L 19.171875 -18.453125 C 19.171875 -19.859375 18.742188 -20.988281 17.890625 -21.84375 C 17.046875 -22.695312 15.566406 -23.125 13.453125 -23.125 C 12.046875 -23.125 10.65625 -23.019531 9.28125 -22.8125 C 7.90625 -22.613281 6.71875 -22.328125 5.71875 -21.953125 L 4.671875 -28.625 C 5.148438 -28.769531 5.75 -28.925781 6.46875 -29.09375 C 7.195312 -29.257812 7.984375 -29.40625 8.828125 -29.53125 C 9.679688 -29.664062 10.582031 -29.78125 11.53125 -29.875 C 12.476562 -29.96875 13.429688 -30.015625 14.390625 -30.015625 Z M 14.390625 -30.015625 "/></g></g></g><g fill="#032757" fill-opacity="1"><g transform="translate(142.94853, 51.962557)"><g><path d="M 21.515625 -21.890625 C 20.765625 -22.078125 19.890625 -22.269531 18.890625 -22.46875 C 17.890625 -22.675781 16.816406 -22.78125 15.671875 -22.78125 C 15.148438 -22.78125 14.53125 -22.734375 13.8125 -22.640625 C 13.09375 -22.554688 12.546875 -22.457031 12.171875 -22.34375 L 12.171875 0 L 3.890625 0 L 3.890625 -27.671875 C 5.367188 -28.191406 7.117188 -28.679688 9.140625 -29.140625 C 11.160156 -29.609375 13.410156 -29.84375 15.890625 -29.84375 C 16.335938 -29.84375 16.875 -29.8125 17.5 -29.75 C 18.132812 -29.695312 18.765625 -29.625 19.390625 -29.53125 C 20.023438 -29.445312 20.65625 -29.335938 21.28125 -29.203125 C 21.914062 -29.078125 22.453125 -28.921875 22.890625 -28.734375 Z M 21.515625 -21.890625 "/></g></g></g></g></g><g clip-path="url(#be07d54035)"><g transform="matrix(1, 0, 0, 1, 231, 13)"><g clip-path="url(#e3a25dbd25)"><g fill="#528fcd" fill-opacity="1"><g transform="translate(0.406823, 51.962557)"><g><path d="M 33.015625 -38.515625 L 33.015625 -31.125 L 21.390625 -31.125 L 21.390625 0 L 12.734375 0 L 12.734375 -31.125 L 1.109375 -31.125 L 1.109375 -38.515625 Z M 33.015625 -38.515625 "/></g></g></g><g fill="#528fcd" fill-opacity="1"><g transform="translate(30.693095, 51.962557)"><g><path d="M 28.84375 -1 C 27.4375 -0.59375 25.617188 -0.210938 23.390625 0.140625 C 21.171875 0.492188 18.835938 0.671875 16.390625 0.671875 C 13.910156 0.671875 11.84375 0.335938 10.1875 -0.328125 C 8.539062 -0.992188 7.234375 -1.929688 6.265625 -3.140625 C 5.304688 -4.347656 4.625 -5.785156 4.21875 -7.453125 C 3.8125 -9.117188 3.609375 -10.953125 3.609375 -12.953125 L 3.609375 -29.234375 L 11.890625 -29.234375 L 11.890625 -13.953125 C 11.890625 -11.285156 12.238281 -9.359375 12.9375 -8.171875 C 13.644531 -6.984375 14.960938 -6.390625 16.890625 -6.390625 C 17.484375 -6.390625 18.113281 -6.414062 18.78125 -6.46875 C 19.445312 -6.53125 20.039062 -6.597656 20.5625 -6.671875 L 20.5625 -29.234375 L 28.84375 -29.234375 Z M 28.84375 -1 "/></g></g></g><g fill="#528fcd" fill-opacity="1"><g transform="translate(63.424669, 51.962557)"><g><path d="M 3.609375 -36.515625 L 11.890625 -37.84375 L 11.890625 -29.234375 L 21.84375 -29.234375 L 21.84375 -22.34375 L 11.890625 -22.34375 L 11.890625 -12.0625 C 11.890625 -10.320312 12.195312 -8.929688 12.8125 -7.890625 C 13.425781 -6.847656 14.65625 -6.328125 16.5 -6.328125 C 17.394531 -6.328125 18.3125 -6.410156 19.25 -6.578125 C 20.195312 -6.753906 21.0625 -6.988281 21.84375 -7.28125 L 23.015625 -0.828125 C 22.015625 -0.421875 20.898438 -0.0703125 19.671875 0.21875 C 18.453125 0.519531 16.953125 0.671875 15.171875 0.671875 C 12.910156 0.671875 11.039062 0.363281 9.5625 -0.25 C 8.082031 -0.863281 6.894531 -1.71875 6 -2.8125 C 5.113281 -3.90625 4.492188 -5.226562 4.140625 -6.78125 C 3.785156 -8.332031 3.609375 -10.054688 3.609375 -11.953125 Z M 3.609375 -36.515625 "/></g></g></g><g fill="#528fcd" fill-opacity="1"><g transform="translate(86.986912, 51.962557)"><g><path d="M 31.234375 -14.671875 C 31.234375 -12.378906 30.898438 -10.273438 30.234375 -8.359375 C 29.566406 -6.453125 28.601562 -4.820312 27.34375 -3.46875 C 26.082031 -2.113281 24.570312 -1.066406 22.8125 -0.328125 C 21.050781 0.410156 19.078125 0.78125 16.890625 0.78125 C 14.742188 0.78125 12.789062 0.410156 11.03125 -0.328125 C 9.269531 -1.066406 7.757812 -2.113281 6.5 -3.46875 C 5.238281 -4.820312 4.253906 -6.453125 3.546875 -8.359375 C 2.847656 -10.273438 2.5 -12.378906 2.5 -14.671875 C 2.5 -16.972656 2.859375 -19.066406 3.578125 -20.953125 C 4.304688 -22.835938 5.304688 -24.445312 6.578125 -25.78125 C 7.859375 -27.125 9.378906 -28.164062 11.140625 -28.90625 C 12.898438 -29.644531 14.816406 -30.015625 16.890625 -30.015625 C 19.003906 -30.015625 20.941406 -29.644531 22.703125 -28.90625 C 24.460938 -28.164062 25.972656 -27.125 27.234375 -25.78125 C 28.492188 -24.445312 29.472656 -22.835938 30.171875 -20.953125 C 30.878906 -19.066406 31.234375 -16.972656 31.234375 -14.671875 Z M 22.78125 -14.671875 C 22.78125 -17.222656 22.269531 -19.226562 21.25 -20.6875 C 20.238281 -22.15625 18.785156 -22.890625 16.890625 -22.890625 C 15.003906 -22.890625 13.539062 -22.15625 12.5 -20.6875 C 11.46875 -19.226562 10.953125 -17.222656 10.953125 -14.671875 C 10.953125 -12.117188 11.46875 -10.085938 12.5 -8.578125 C 13.539062 -7.078125 15.003906 -6.328125 16.890625 -6.328125 C 18.785156 -6.328125 20.238281 -7.078125 21.25 -8.578125 C 22.269531 -10.085938 22.78125 -12.117188 22.78125 -14.671875 Z M 22.78125 -14.671875 "/></g></g></g><g fill="#528fcd" fill-opacity="1"><g transform="translate(120.718771, 51.962557)"><g><path d="M 21.515625 -21.890625 C 20.765625 -22.078125 19.890625 -22.269531 18.890625 -22.46875 C 17.890625 -22.675781 16.816406 -22.78125 15.671875 -22.78125 C 15.148438 -22.78125 14.53125 -22.734375 13.8125 -22.640625 C 13.09375 -22.554688 12.546875 -22.457031 12.171875 -22.34375 L 12.171875 0 L 3.890625 0 L 3.890625 -27.671875 C 5.367188 -28.191406 7.117188 -28.679688 9.140625 -29.140625 C 11.160156 -29.609375 13.410156 -29.84375 15.890625 -29.84375 C 16.335938 -29.84375 16.875 -29.8125 17.5 -29.75 C 18.132812 -29.695312 18.765625 -29.625 19.390625 -29.53125 C 20.023438 -29.445312 20.65625 -29.335938 21.28125 -29.203125 C 21.914062 -29.078125 22.453125 -28.921875 22.890625 -28.734375 Z M 21.515625 -21.890625 "/></g></g></g></g></g></g></g></g></svg>